<?xml version="1.0" encoding="UTF-8"?>
<svg version="1.1" xmlns="http://www.w3.org/2000/svg" width="221" height="367">
<path d="M0 0 C0.78769775 -0.0038269 1.57539551 -0.00765381 2.38696289 -0.01159668 C4.05128254 -0.01431696 5.71564486 -0.00694746 7.37988281 0.00976562 C9.92870312 0.0311761 12.47470495 0.00997061 15.0234375 -0.015625 C16.64063123 -0.01298174 18.2578232 -0.0078568 19.875 0 C21.01884155 -0.01214539 21.01884155 -0.01214539 22.18579102 -0.02453613 C27.47777782 0.06933171 27.47777782 0.06933171 29.63980579 2.24168777 C31.17837261 4.95622903 31.30777503 6.57474104 31.29826355 9.68182373 C31.30238754 10.72226334 31.30651154 11.76270294 31.3107605 12.83467102 C31.29997467 13.97043076 31.28918884 15.10619049 31.27807617 16.27636719 C31.27873329 18.07677711 31.27873329 18.07677711 31.27940369 19.91355896 C31.27767245 23.20056074 31.26263279 26.48717879 31.24168181 29.77410412 C31.22292098 33.21073423 31.22116505 36.64737199 31.21760559 40.08404541 C31.20828336 46.58989804 31.18366725 53.09559934 31.15355712 59.60138535 C31.11672824 67.73552993 31.10031219 75.86969911 31.08398438 84.00390625 C31.05476978 98.51313871 30.99467289 113.02204096 30.9375 127.53125 C55.0275 127.53125 79.1175 127.53125 103.9375 127.53125 C103.96328125 118.69859375 103.9890625 109.8659375 104.015625 100.765625 C104.04398226 94.46807853 104.07484187 88.17058344 104.1093235 81.87307167 C104.15368492 73.71013928 104.19209404 65.54731894 104.20849609 57.38427734 C104.22149907 50.92228204 104.24842868 44.4605209 104.29211307 37.99865746 C104.31475885 34.57679204 104.33040885 31.15521575 104.32938385 27.73326874 C104.33173947 23.9139412 104.35870794 20.09553646 104.39160156 16.27636719 C104.38405602 14.57272758 104.38405602 14.57272758 104.37635803 12.83467102 C104.39722725 11.27401161 104.39722725 11.27401161 104.41851807 9.68182373 C104.42404882 8.32678804 104.42404882 8.32678804 104.42969131 6.9443779 C105.10610431 3.73003536 106.37606845 2.53040316 108.9375 0.53125 C111.70785324 0.12114012 114.07474057 -0.05390848 116.84375 -0.03515625 C117.60546509 -0.04135483 118.36718018 -0.04755341 119.15197754 -0.05393982 C120.75902023 -0.06102923 122.36613649 -0.05787918 123.97314453 -0.04516602 C126.43008629 -0.03129186 128.88322322 -0.06538462 131.33984375 -0.10351562 C132.90364676 -0.10446682 134.46745454 -0.10260798 136.03125 -0.09765625 C136.76363892 -0.11091446 137.49602783 -0.12417267 138.25061035 -0.13783264 C141.78151281 -0.07346562 143.5373976 0.14981932 146.13097382 2.62236023 C148.38126374 6.24580362 148.44039525 8.45409921 148.44543457 12.70458984 C148.45167453 13.41587225 148.4579145 14.12715466 148.46434355 14.85999107 C148.48026829 17.23772947 148.4676722 19.61444194 148.45507812 21.9921875 C148.46049951 23.69908241 148.46762226 25.40597264 148.47631836 27.112854 C148.49455282 31.74509403 148.48748371 36.37697768 148.47480202 41.00922394 C148.46467499 45.85690776 148.47406687 50.70456107 148.48034668 55.55224609 C148.48762395 63.69308958 148.47803329 71.83378792 148.45898438 79.97460938 C148.43721548 89.38654144 148.4442668 98.79812692 148.46629 108.21005058 C148.48444173 116.29087224 148.48700343 124.37158955 148.47653532 132.452425 C148.47029914 137.27878628 148.46946818 142.10498464 148.48268127 146.93133545 C148.49423584 151.46883112 148.48622133 156.00587993 148.46310425 160.54332733 C148.45781504 162.20860807 148.45933458 163.87392642 148.46815491 165.5391922 C148.47908622 167.81260588 148.46537805 170.08458772 148.44543457 172.35791016 C148.44392647 173.62994293 148.44241837 174.90197571 148.44086456 176.21255493 C147.84000264 180.17405253 146.86307044 181.81936522 143.9375 184.53125 C140.34245656 185.74715518 136.75452828 185.65885576 132.97900391 185.66496277 C131.78454651 185.66922775 130.59008911 185.67349274 129.35943604 185.67788696 C128.05746277 185.67743378 126.7554895 185.67698059 125.4140625 185.67651367 C124.02243968 185.67950738 122.63081768 185.6829104 121.23919678 185.68669128 C117.46654573 185.6955121 113.69391738 185.69786854 109.92125702 185.69850707 C107.56348943 185.69921845 105.20572759 185.7013544 102.84796143 185.70400429 C94.62064244 185.71325006 86.39333964 185.71733997 78.16601562 185.71655273 C70.49918291 185.71595155 62.83242047 185.72651334 55.16560555 185.7422964 C48.57949047 185.75537121 41.99339838 185.76073668 35.40727043 185.76009732 C31.47520347 185.7598424 27.54319904 185.76269086 23.61114502 185.77327538 C19.9142495 185.78295582 16.21747631 185.78303595 12.52057648 185.77575874 C10.51889962 185.77421463 8.51722277 185.78255928 6.51556396 185.79119873 C5.32110657 185.78700424 4.12664917 185.78280975 2.89599609 185.77848816 C1.85994232 185.77903293 0.82388855 185.77957769 -0.24356079 185.78013897 C-3.90231188 185.45710157 -6.73402394 184.38527032 -9.8125 182.40625 C-14.12839638 175.93240544 -12.20299289 164.72662893 -12.19189453 157.17016602 C-12.19325122 155.6171057 -12.19503265 154.06404571 -12.19720459 152.51098633 C-12.20174747 148.31056843 -12.20000222 144.11017521 -12.1968255 139.9097569 C-12.19428518 135.50306462 -12.19664414 131.09637438 -12.19821167 126.68968201 C-12.20002867 119.28978091 -12.19763955 111.88988981 -12.19287109 104.48999023 C-12.18743139 95.95012249 -12.1891909 87.41027862 -12.1946975 78.87041146 C-12.19924438 71.52324678 -12.19987141 64.17608927 -12.19725883 56.82892364 C-12.19570447 52.4474285 -12.19547915 48.06594456 -12.19879532 43.68445015 C-12.20169687 39.56318934 -12.19965654 35.44195913 -12.19390106 31.3207016 C-12.19258559 29.8135095 -12.19294682 28.3063148 -12.19516373 26.79912376 C-12.22118738 7.29970046 -12.22118738 7.29970046 -10.00390625 2.00195312 C-6.93598966 -0.32213258 -3.6940559 -0.03922373 0 0 Z M28.9375 149.53125 C27.72059467 151.29654595 27.72059467 151.29654595 26.9375 153.53125 C27.72059467 155.76595405 27.72059467 155.76595405 28.9375 157.53125 C35.76115883 157.67722317 42.58489471 157.81911884 49.40869141 157.95849609 C51.71828015 158.00611319 54.02785152 158.05458224 56.33740234 158.10400391 C64.20377724 158.27195701 72.07018234 158.41540383 79.9375 158.53125 C81.0807373 158.54897461 82.22397461 158.56669922 83.40185547 158.58496094 C86.72624377 158.63123136 90.05039407 158.66203332 93.375 158.6875 C94.88513672 158.70979675 94.88513672 158.70979675 96.42578125 158.73254395 C97.35648437 158.73637085 98.2871875 158.74019775 99.24609375 158.74414062 C100.05876709 158.75143188 100.87144043 158.75872314 101.70874023 158.76623535 C104.17842183 158.50584883 105.80114557 157.76627738 107.9375 156.53125 C107.98004356 154.53170254 107.97830783 152.53083364 107.9375 150.53125 C106.24081793 148.83456793 104.12617982 149.41156007 101.86309814 149.40682983 C100.77445465 149.41222275 100.77445465 149.41222275 99.66381836 149.41772461 C98.90289383 149.41757858 98.1419693 149.41743256 97.35798645 149.4172821 C94.83107702 149.41798138 92.30424038 149.42577445 89.77734375 149.43359375 C88.0299941 149.43545788 86.28264393 149.4368818 84.53529358 149.43788147 C79.92718066 149.44170707 75.31909905 149.45153771 70.71099854 149.46258545 C66.01241479 149.47279866 61.31382601 149.4773789 56.61523438 149.48242188 C47.38930913 149.49315995 38.16340716 149.51023687 28.9375 149.53125 Z " fill="#2D70B9" transform="translate(41.0625,87.46875)"/>
<path d="M0 0 C0 4.29 0 8.58 0 13 C5.94 13.33 11.88 13.66 18 14 C17.95875 16.908125 17.9175 19.81625 17.875 22.8125 C18.08764633 33.96482491 22.30254515 42.14029668 28.09790039 51.4597168 C29 53 29 53 29 54 C19.43 54 9.86 54 0 54 C-1.485 51.40125 -2.97 48.8025 -4.5 46.125 C-4.96986328 45.30789551 -5.43972656 44.49079102 -5.92382812 43.64892578 C-6.28927734 43.0042334 -6.65472656 42.35954102 -7.03125 41.6953125 C-7.40830078 41.03547363 -7.78535156 40.37563477 -8.17382812 39.69580078 C-9 38 -9 38 -9 36 C-17.25 36 -25.5 36 -34 36 C-34 41.94 -34 47.88 -34 54 C-43.24 54 -52.48 54 -62 54 C-62 48.06 -62 42.12 -62 36 C-76.22637458 34.27344423 -76.22637458 34.27344423 -89.06738281 38.71582031 C-92.67363289 43.53959335 -93.95834847 48.13568178 -96 54 C-105.57 54 -115.14 54 -125 54 C-122.97629166 48.94072914 -120.44372025 44.72742144 -117.55859375 40.1328125 C-114.66996973 34.32660583 -114.89902591 28.49898931 -115 22.125 C-115.03717744 19.750291 -115.04737212 17.37452751 -115 15 C-114 14 -114 14 -112.23413086 13.88647461 C-111.48526611 13.89171143 -110.73640137 13.89694824 -109.96484375 13.90234375 C-109.15595703 13.90556641 -108.34707031 13.90878906 -107.51367188 13.91210938 C-106.66353516 13.92048828 -105.81339844 13.92886719 -104.9375 13.9375 C-104.08349609 13.94201172 -103.22949219 13.94652344 -102.34960938 13.95117188 C-100.23304337 13.96299627 -98.11651315 13.98093231 -96 14 C-96 9.38 -96 4.76 -96 0 C-84.07384373 -0.15379476 -72.14763225 -0.30197618 -60.22131729 -0.4429636 C-54.68363879 -0.5086045 -49.14599814 -0.57618906 -43.60839844 -0.64819336 C-38.26573143 -0.71759184 -32.92302535 -0.78191377 -27.5802536 -0.84269524 C-25.54046148 -0.866797 -23.50069024 -0.89273735 -21.46094513 -0.92053413 C-18.60713465 -0.95911261 -15.75332033 -0.9911921 -12.89941406 -1.02172852 C-12.05352722 -1.03467453 -11.20764038 -1.04762054 -10.33612061 -1.06095886 C-6.63811247 -1.09435043 -3.61395436 -0.90348859 0 0 Z " fill="#2D70B8" transform="translate(157,281)"/>
<path d="M0 0 C1.54597618 -0.00412399 1.54597618 -0.00412399 3.1231842 -0.0083313 C4.25318848 -0.00114075 5.38319275 0.0060498 6.54743958 0.01345825 C8.33300011 0.01302017 8.33300011 0.01302017 10.15463257 0.01257324 C13.41888201 0.01372861 16.68296043 0.02376557 19.94717574 0.03772116 C23.35846321 0.05021574 26.76975397 0.05139801 30.18106079 0.05377197 C36.64086579 0.05999049 43.10060316 0.07640632 49.56037837 0.09647095 C56.91459112 0.1188184 64.26880708 0.12982047 71.62304533 0.13986182 C86.75128279 0.16077224 101.87945696 0.19595542 117.00764465 0.24050903 C117.65477061 1.81721985 118.29778814 3.39561723 118.93910217 4.97470093 C119.47689238 6.29287748 119.47689238 6.29287748 120.02554703 7.63768387 C121.39031766 11.25469632 122.20745858 14.87334742 122.92951965 18.66238403 C123.07923218 19.41086609 123.2289447 20.15934814 123.38319397 20.93051147 C123.69345223 22.49240709 123.99907693 24.05523007 124.30012512 25.618927 C124.75982101 28.00179032 125.23611086 30.38090234 125.7146759 32.76004028 C126.0164334 34.28979595 126.31724826 35.81973793 126.61701965 37.34988403 C126.75758789 38.05312805 126.89815613 38.75637207 127.04298401 39.48092651 C127.82155142 43.56849785 128.00764465 47.00535587 128.00764465 51.24050903 C118.43764465 50.91050903 108.86764465 50.58050903 99.00764465 50.24050903 C99.00764465 40.01050903 99.00764465 29.78050903 99.00764465 19.24050903 C70.29764465 19.24050903 41.58764465 19.24050903 12.00764465 19.24050903 C12.00764465 29.47050903 12.00764465 39.70050903 12.00764465 50.24050903 C1.44764465 50.24050903 -9.11235535 50.24050903 -19.99235535 50.24050903 C-17.24235535 38.36550903 -17.24235535 38.36550903 -16.34196472 34.48074341 C-15.1238854 29.20869466 -13.91532082 23.93593071 -12.77360535 18.64675903 C-12.5082196 17.4206189 -12.5082196 17.4206189 -12.23747253 16.16970825 C-11.91572321 14.67233638 -11.59841323 13.17400125 -11.28630066 11.67459106 C-9.71451565 4.36843986 -8.20569577 -0.01686679 0 0 Z " fill="#2E70B9" transform="translate(53.99235534667969,30.759490966796875)"/>
<path d="M0 0 C5.77203883 4.58400754 10.47885048 11.14425242 11.9375 18.4375 C12.89136688 27.8271271 11.08614527 35.72316083 5.25 43.25 C0.49265942 48.38355884 -6.29472068 52.11780963 -13.28515625 52.7109375 C-21.47931046 52.92766996 -28.36824085 52.72499454 -35.0625 47.4375 C-37.68073982 44.60433004 -39.87219463 41.60473134 -42.0625 38.4375 C-42.7225 37.7775 -43.3825 37.1175 -44.0625 36.4375 C-46.94619629 27.69740816 -46.66742354 19.86439392 -43.0625 11.4375 C-38.9022466 4.22639411 -33.28349209 -1.55445825 -25.2109375 -4.16015625 C-16.42407858 -5.80569528 -7.45884722 -5.07089237 0 0 Z M-27.875 13.75 C-31.18132822 17.81206038 -32.0625 20.03132758 -32.0625 25.3125 C-31.26189722 30.17133066 -28.89944738 33.41621606 -25.0625 36.4375 C-20.39190869 38.7776107 -15.84846683 38.82719874 -10.890625 37.34375 C-7.10711013 35.46816143 -4.92661149 32.16572298 -3.0625 28.4375 C-2.48824915 23.73052583 -2.60695448 20.31605208 -4.8125 16.0625 C-7.93656682 12.41775538 -9.65700105 10.78224503 -14.375 9.625 C-19.93121533 9.34248058 -23.54726525 10.19164032 -27.875 13.75 Z " fill="#2E71B9" transform="translate(126.0625,117.5625)"/>
<path d="M0 0 C2.24263898 -0.00975803 4.4843797 -0.040879 6.72680664 -0.07226562 C8.17146274 -0.07879297 9.61612529 -0.0840445 11.06079102 -0.08789062 C12.35573486 -0.09723633 13.65067871 -0.10658203 14.98486328 -0.11621094 C19.80148926 0.34818013 23.56725556 1.72408514 27.54516602 4.57617188 C33.7239036 13.62133412 31.37505097 32.8645119 29.68188477 43.24023438 C29.02188477 43.24023438 28.36188477 43.24023438 27.68188477 43.24023438 C26.21280236 41.77115197 24.78015985 40.26539663 23.36938477 38.74023438 C20.79500336 36.34546097 18.99144103 35.28038063 15.68188477 34.24023438 C15.68188477 33.58023438 15.68188477 32.92023438 15.68188477 32.24023438 C2.56995498 29.75540166 -8.47181447 28.54054316 -20.13061523 36.17773438 C-23.28390465 38.41970078 -26.35281315 40.75320682 -29.31811523 43.24023438 C-31.95758835 40.60076126 -30.54834398 33.31478098 -30.55834961 29.73193359 C-30.56798049 27.64443976 -30.59895261 25.55796242 -30.63061523 23.47070312 C-30.63715289 22.1308652 -30.64240036 20.79102025 -30.64624023 19.45117188 C-30.65558594 18.2373584 -30.66493164 17.02354492 -30.67456055 15.77294922 C-30.15603181 10.63383224 -28.69005354 6.72976739 -25.13061523 2.86523438 C-17.99118084 -1.25977216 -8.03411965 0.02114474 0 0 Z " fill="#2D70B8" transform="translate(109.318115234375,76.759765625)"/>
<path d="M0 0 C2 2 2 2 2.24291992 3.96435547 C2.23881104 4.75729004 2.23470215 5.55022461 2.23046875 6.3671875 C2.22950195 7.24761719 2.22853516 8.12804687 2.22753906 9.03515625 C2.21432617 9.97230469 2.20111328 10.90945312 2.1875 11.875 C2.1781543 12.82503906 2.16880859 13.77507812 2.15917969 14.75390625 C2.12260963 17.50322479 2.06619097 20.25125043 2 23 C1.95552734 24.92199219 1.95552734 24.92199219 1.91015625 26.8828125 C1.68167007 31.32993384 1.44251596 34.23704145 -0.8125 38.125 C-7.99273963 44.27949112 -17.29619623 43.18634381 -26.2578125 43.18530273 C-28.36218578 43.1874867 -30.46603184 43.20567183 -32.5703125 43.22460938 C-48.09753491 43.29057733 -48.09753491 43.29057733 -54.875 39.3125 C-59.08599042 34.7299516 -59.24852943 28.9595606 -59.1953125 22.97265625 C-59.18886719 21.68681641 -59.18242188 20.40097656 -59.17578125 19.07617188 C-59.15907601 17.73827846 -59.14214619 16.40038783 -59.125 15.0625 C-59.11495322 13.69727217 -59.10583036 12.3320372 -59.09765625 10.96679688 C-59.07417605 7.64434801 -59.04133359 4.32226679 -59 1 C-55.89026976 2.48699883 -53.65018834 4.07964341 -51.125 6.4375 C-43.27054042 13.44676727 -35.89418292 14.39415991 -25.6328125 14.265625 C-14.89575255 13.48054965 -8.38984081 8.49627884 -1 1 C-0.67 0.67 -0.34 0.34 0 0 Z " fill="#2D70B8" transform="translate(138,162)"/>
<path d="M0 0 C0.70253906 0.00386719 1.40507812 0.00773438 2.12890625 0.01171875 C2.83144531 0.00785156 3.53398437 0.00398437 4.2578125 0 C9.50229247 0.01010497 9.50229247 0.01010497 10.62890625 1.13671875 C10.71752617 3.94835255 10.7441298 6.7353013 10.7265625 9.546875 C10.72514755 10.38890976 10.7237326 11.23094452 10.72227478 12.09849548 C10.71665888 14.7987721 10.70410373 17.49896703 10.69140625 20.19921875 C10.6863933 22.02538943 10.68183004 23.85156141 10.67773438 25.67773438 C10.66668429 30.16409417 10.64940904 34.65039259 10.62890625 39.13671875 C7.56357461 40.66938457 4.36136353 40.23948346 1.00390625 40.19921875 C0.2975 40.19470703 -0.40890625 40.19019531 -1.13671875 40.18554688 C-2.8815465 40.1737575 -4.62633075 40.15582199 -6.37109375 40.13671875 C-6.3957415 34.60083342 -6.41392871 29.06497975 -6.42602539 23.52905273 C-6.43106619 21.64428145 -6.43789873 19.7595141 -6.4465332 17.87475586 C-6.45860992 15.17170239 -6.46432443 12.46870044 -6.46875 9.765625 C-6.47391129 8.91770889 -6.47907257 8.06979279 -6.48439026 7.19618225 C-6.4845857 5.17600807 -6.43315586 3.15593941 -6.37109375 1.13671875 C-4.61549433 -0.61888067 -2.33526933 0.00449956 0 0 Z " fill="#3375BB" transform="translate(13.37109375,188.86328125)"/>
<path d="M0 0 C0.66 0 1.32 0 2 0 C2 51.81 2 103.62 2 157 C1.34 157 0.68 157 0 157 C-0.86050548 153.28053686 -1.12559853 149.84471819 -1.12698364 146.03045654 C-1.12980347 144.83336563 -1.13262329 143.63627472 -1.13552856 142.40290833 C-1.13249222 140.44534859 -1.13249222 140.44534859 -1.12939453 138.44824219 C-1.13075032 137.0532578 -1.13253125 135.65827376 -1.13470459 134.26329041 C-1.13925951 130.48003606 -1.13749688 126.69680901 -1.1343255 122.91355419 C-1.13178988 118.94727188 -1.13414298 114.98099188 -1.13571167 111.01470947 C-1.1375307 104.35013409 -1.13513492 97.68556979 -1.13037109 91.02099609 C-1.12493792 83.33154177 -1.12668533 75.642114 -1.1321975 67.95266032 C-1.13674689 61.34015704 -1.13736998 54.72766171 -1.13475883 48.11515737 C-1.13320494 44.17068755 -1.13297768 40.22623017 -1.13629532 36.28176117 C-1.13920027 32.56846447 -1.13715043 28.85520171 -1.13140106 25.14190865 C-1.12946392 23.14100821 -1.13240562 21.14010487 -1.13552856 19.13920593 C-1.12043951 12.6731411 -0.87075288 6.40907399 0 0 Z " fill="#306BAE" transform="translate(30,92)"/>
<path d="M0 0 C11.56961328 -0.02313398 23.1392211 -0.0409205 34.70885277 -0.05181217 C40.08064972 -0.05703868 45.45243089 -0.06413214 50.82421875 -0.07543945 C56.00482972 -0.08627654 61.18542548 -0.09227859 66.36604691 -0.09487724 C68.34606796 -0.09673 70.32608815 -0.10034778 72.30610275 -0.10573006 C75.07176283 -0.11295136 77.83735941 -0.11399048 80.60302734 -0.11352539 C81.42805252 -0.11712067 82.2530777 -0.12071594 83.10310364 -0.12442017 C88.77189568 -0.11405216 88.77189568 -0.11405216 91 1 C91 11.23 91 21.46 91 32 C103.375 31.505 103.375 31.505 116 31 C116.495 32.98 116.495 32.98 117 35 C107.43 34.67 97.86 34.34 88 34 C88 23.77 88 13.54 88 3 C84.32109619 3.01571045 84.32109619 3.01571045 80.56787109 3.03173828 C72.457417 3.06490272 64.34695989 3.08697957 56.23645592 3.10362434 C51.31987287 3.11405405 46.40335941 3.12819849 41.48681641 3.15087891 C36.7406 3.17263616 31.99445045 3.18457474 27.24818802 3.18975449 C25.43892998 3.19344506 23.62967553 3.20065181 21.82044601 3.21146011 C19.28304941 3.22601331 16.74592783 3.22797634 14.20849609 3.22705078 C13.46330719 3.23424133 12.71811829 3.24143188 11.9503479 3.24884033 C7.58764608 3.23166137 4.05576298 2.60766338 0 1 C0 0.67 0 0.34 0 0 Z " fill="#2B69AF" transform="translate(65,47)"/>
<path d="M0 0 C0 12.54 0 25.08 0 38 C-0.66 38 -1.32 38 -2 38 C-2 26.45 -2 14.9 -2 3 C-5.96 3 -9.92 3 -14 3 C-14 13.23 -14 23.46 -14 34 C-14.33 34 -14.66 34 -15 34 C-15.02465392 29.46102295 -15.04283789 24.92208457 -15.05493164 20.38305664 C-15.0599714 18.83780234 -15.0668032 17.29255284 -15.07543945 15.74731445 C-15.08752076 13.53074971 -15.09323173 11.31424782 -15.09765625 9.09765625 C-15.10281754 8.4028566 -15.10797882 7.70805695 -15.11329651 6.99220276 C-15.11349277 5.3277067 -15.06189129 3.66334501 -15 2 C-13.20583606 0.20583606 -10.49354064 0.61961125 -8.0625 0.4375 C-6.98097656 0.35371094 -5.89945313 0.26992187 -4.78515625 0.18359375 C-3.19238735 0.07860057 -1.59622565 0 0 0 Z " fill="#205EA4" transform="translate(23,189)"/>
<path d="M0 0 C2 2 2 2 2.24050903 4.13870239 C2.23606781 5.0225058 2.23162659 5.9063092 2.22705078 6.81689453 C2.22689972 7.81778107 2.22674866 8.8186676 2.22659302 9.84988403 C2.21627045 10.93325043 2.20594788 12.01661682 2.1953125 13.1328125 C2.1924826 14.23978485 2.18965271 15.3467572 2.18673706 16.48727417 C2.17551519 20.03329137 2.15040691 23.57905875 2.125 27.125 C2.1149728 29.52473594 2.1058465 31.92447583 2.09765625 34.32421875 C2.07556932 40.21623151 2.04207207 46.10809791 2 52 C1.34 52 0.68 52 0 52 C-1.12028255 47.51219481 -1.14478082 43.11062724 -1.1328125 38.515625 C-1.13376923 37.70059509 -1.13472595 36.88556519 -1.13571167 36.0458374 C-1.13639051 34.32450279 -1.13455689 32.60316559 -1.13037109 30.88183594 C-1.12504638 28.27272651 -1.13031181 25.66379141 -1.13671875 23.0546875 C-1.13605738 21.37499963 -1.13477499 19.69531186 -1.1328125 18.015625 C-1.13483673 17.24655823 -1.13686096 16.47749146 -1.13894653 15.68511963 C-1.11651242 10.39023781 -0.65636738 5.25484987 0 0 Z " fill="#306BAD" transform="translate(30,197)"/>
<path d="M0 0 C0.66 0 1.32 0 2 0 C2 6.27 2 12.54 2 19 C-6.58 19 -15.16 19 -24 19 C-24 13.06 -24 7.12 -24 1 C-23.67 1 -23.34 1 -23 1 C-23 6.28 -23 11.56 -23 17 C-15.41 17 -7.82 17 0 17 C0 11.39 0 5.78 0 0 Z " fill="#1F5DA4" transform="translate(120,316)"/>
<path d="M0 0 C0.33 0 0.66 0 1 0 C1 12.54 1 25.08 1 38 C-1.76452033 39.38226016 -4.0461363 39.09525387 -7.125 39.0625 C-8.22070312 39.05347656 -9.31640625 39.04445312 -10.4453125 39.03515625 C-11.28835938 39.02355469 -12.13140625 39.01195312 -13 39 C-13.495 37.515 -13.495 37.515 -14 36 C-12.04174127 35.97305149 -10.08337774 35.95362782 -8.125 35.9375 C-7.03445312 35.92589844 -5.94390625 35.91429687 -4.8203125 35.90234375 C-2 36 -2 36 0 37 C0 24.79 0 12.58 0 0 Z " fill="#4582C0" transform="translate(23,190)"/>
<path d="M0 0 C0.66 0 1.32 0 2 0 C1.67 1.32 1.34 2.64 1 4 C-8.24 4 -17.48 4 -27 4 C-26.67 3.34 -26.34 2.68 -26 2 C-17.42 2 -8.84 2 0 2 C0 1.34 0 0.68 0 0 Z " fill="#235FA4" transform="translate(60,331)"/>
<path d="M0 0 C0.99 0.33 1.98 0.66 3 1 C3.33 1.99 3.66 2.98 4 4 C-5.24 4 -14.48 4 -24 4 C-24 3.34 -24 2.68 -24 2 C-16.41 2 -8.82 2 -1 2 C-0.67 1.34 -0.34 0.68 0 0 Z " fill="#235FA5" transform="translate(182,331)"/>
<path d="M0 0 C-0.33 0.66 -0.66 1.32 -1 2 C-9.3340535 4.67880291 -16.71208248 4.82141873 -25 2 C-25 1.67 -25 1.34 -25 1 C-21.95843125 0.83135856 -18.91676547 0.66502247 -15.875 0.5 C-15.0190625 0.45230469 -14.163125 0.40460938 -13.28125 0.35546875 C-8.84778214 0.11674356 -4.44201651 -0.05825595 0 0 Z " fill="#2A68AE" transform="translate(122,176)"/>
<path d="M0 0 C0.71607422 -0.00386719 1.43214844 -0.00773437 2.16992188 -0.01171875 C5.60428156 -0.00535293 8.78114926 0.04549558 12.0625 1.125 C12.0625 1.785 12.0625 2.445 12.0625 3.125 C3.8125 3.125 -4.4375 3.125 -12.9375 3.125 C-9.20620054 -0.60629946 -4.94938538 -0.02658578 0 0 Z " fill="#2A67AD" transform="translate(108.9375,103.875)"/>
<path d="M0 0 C-0.99 1.485 -0.99 1.485 -2 3 C-2 2.34 -2 1.68 -2 1 C-10.25 1 -18.5 1 -27 1 C-27 6.94 -27 12.88 -27 19 C-27.33 19 -27.66 19 -28 19 C-28 12.73 -28 6.46 -28 0 C-23.89605042 -0.19428749 -19.79200631 -0.3807258 -15.6875 -0.5625 C-14.52025391 -0.61857422 -13.35300781 -0.67464844 -12.15039062 -0.73242188 C-11.03212891 -0.78076172 -9.91386719 -0.82910156 -8.76171875 -0.87890625 C-7.2142395 -0.94960327 -7.2142395 -0.94960327 -5.63549805 -1.02172852 C-3 -1 -3 -1 0 0 Z " fill="#3E7BBA" transform="translate(150,316)"/>
<path d="M0 0 C5 5 5 5 7.375 7.5625 C10.4089674 10.37975544 13.35045511 12.067888 17 14 C17 14.33 17 14.66 17 15 C13.44797606 15.53818545 11.40319682 14.88143485 8.5 12.9375 C4.7934871 10.09070344 2.43315804 6.98153135 0 3 C0 2.01 0 1.02 0 0 Z " fill="#2B69AE" transform="translate(84,153)"/>
<path d="M0 0 C0.33 0.66 0.66 1.32 1 2 C0.16597656 2.03738281 -0.66804688 2.07476562 -1.52734375 2.11328125 C-8.5546669 2.52381216 -14.43907095 3.44234969 -21 6 C-20 3 -20 3 -16.6875 1.3125 C-11.23084976 -0.59583669 -5.70442745 -0.25669924 0 0 Z " fill="#2966AA" transform="translate(115,113)"/>
<path d="M0 0 C-5.02932494 3.01759496 -8.28723904 3.46070653 -14 3 C-16.5 2 -16.5 2 -18 1 C-18 0.67 -18 0.34 -18 0 C-16.80375 0.020625 -15.6075 0.04125 -14.375 0.0625 C-11.69143437 0.07198256 -9.41731726 -0.10084894 -6.75 -0.5625 C-4.06794095 -0.98919121 -2.53426415 -0.87724528 0 0 Z " fill="#2B69AF" transform="translate(119,155)"/>
<path d="M0 0 C2 2 2 2 2.24291992 3.96435547 C2.23881104 4.75729004 2.23470215 5.55022461 2.23046875 6.3671875 C2.22917969 7.24802002 2.22789062 8.12885254 2.2265625 9.03637695 C2.21367187 9.97312256 2.20078125 10.90986816 2.1875 11.875 C2.18105469 12.82141357 2.17460937 13.76782715 2.16796875 14.74291992 C2.09362512 21.53432682 1.78264588 28.24967927 1 35 C0.67 35 0.34 35 0 35 C-0.167247 30.176384 -0.32784308 25.35261089 -0.48217773 20.52856445 C-0.53566959 18.88625066 -0.59100431 17.24399584 -0.64819336 15.60180664 C-0.72990479 13.24638594 -0.80506639 10.89083518 -0.87890625 8.53515625 C-0.90594131 7.79660904 -0.93297638 7.05806183 -0.96083069 6.2971344 C-1.0129438 4.53214384 -1.0118612 2.7657199 -1 1 C-0.67 0.67 -0.34 0.34 0 0 Z " fill="#3977B9" transform="translate(138,162)"/>
<path d="M0 0 C2 2 2 2 2.1953125 5.6953125 C2.182009 7.17200108 2.15814835 8.64862358 2.125 10.125 C2.11597656 10.87910156 2.10695312 11.63320312 2.09765625 12.41015625 C2.0740687 14.27357254 2.03819719 16.13682593 2 18 C1.34 18 0.68 18 0 18 C-0.90375653 11.67370431 -0.90375653 6.32629569 0 0 Z " fill="#235DA3" transform="translate(30,197)"/>
<path d="M0 0 C0.33 0 0.66 0 1 0 C1 7.26 1 14.52 1 22 C0.34 22 -0.32 22 -1 22 C-2.36534076 17.23562911 -1.71274115 13.00574651 -1.0625 8.1875 C-0.96259766 7.39923828 -0.86269531 6.61097656 -0.75976562 5.79882812 C-0.51363759 3.86496497 -0.25778782 1.93234344 0 0 Z " fill="#2662AA" transform="translate(31,227)"/>
<path d="M0 0 C3.91531663 5.10693473 4.10265877 7.63515636 4 14 C1.29024273 9.9353641 -0.45789719 5.62630843 -2 1 C-1.34 0.67 -0.68 0.34 0 0 Z " fill="#2D67A9" transform="translate(170,31)"/>
<path d="M0 0 C2.54563057 0.96558401 3.94635204 1.93868805 5.75 4 C7.55131741 8.32316179 7.24227996 12.37873401 7 17 C6.67 17 6.34 17 6 17 C6 14.03 6 11.06 6 8 C5.34 8 4.68 8 4 8 C0 2.58823529 0 2.58823529 0 0 Z " fill="#2664A9" transform="translate(118,129)"/>
<path d="M0 0 C-2 2 -2 2 -5.9140625 2.1953125 C-7.48449351 2.18200376 -9.05486221 2.15813602 -10.625 2.125 C-11.42679687 2.11597656 -12.22859375 2.10695312 -13.0546875 2.09765625 C-15.03658523 2.07406223 -17.01832981 2.03819065 -19 2 C-19 1.67 -19 1.34 -19 1 C-16.58440932 0.63645961 -14.16805703 0.28389449 -11.75 -0.0625 C-11.06808594 -0.16626953 -10.38617188 -0.27003906 -9.68359375 -0.37695312 C-6.2150075 -0.86524925 -3.33088887 -1.22762141 0 0 Z " fill="#215BA2" transform="translate(121,167)"/>
<path d="M0 0 C0 3.63195496 -0.95453155 4.74713911 -3 7.6875 C-3.556875 8.49574219 -4.11375 9.30398437 -4.6875 10.13671875 C-5.120625 10.75160156 -5.55375 11.36648437 -6 12 C-6.609375 10.1953125 -6.609375 10.1953125 -7 8 C-4.97708454 4.38765096 -3.46128121 2.3075208 0 0 Z " fill="#2561A6" transform="translate(90,121)"/>
<path d="M0 0 C0.33 0.66 0.66 1.32 1 2 C-0.21484375 4.3828125 -0.21484375 4.3828125 -1.9375 7.125 C-2.50339844 8.03507812 -3.06929687 8.94515625 -3.65234375 9.8828125 C-4.09707031 10.58148438 -4.54179688 11.28015625 -5 12 C-5.80576116 9.67509679 -6.17106563 8.45649006 -5.29296875 6.11328125 C-2.22222222 1.11111111 -2.22222222 1.11111111 0 0 Z " fill="#2A67AA" transform="translate(41,320)"/>
<path d="M0 0 C3.875 1.875 3.875 1.875 5 3 C5.66 2.01 6.32 1.02 7 0 C7 2.31 7 4.62 7 7 C5.68 7 4.36 7 3 7 C2.01 4.69 1.02 2.38 0 0 Z " fill="#2662A9" transform="translate(131,111)"/>
<path d="M0 0 C0.99 0 1.98 0 3 0 C5.42603384 2.98055586 6.91332443 5.00323092 7.25 8.875 C7.1675 9.57625 7.085 10.2775 7 11 C4.23455278 7.54319097 2.15078722 3.85658398 0 0 Z " fill="#2664A9" transform="translate(128,122)"/>
<path d="M0 0 C0.33 0 0.66 0 1 0 C1 4.29 1 8.58 1 13 C0.01 12.01 -0.98 11.02 -2 10 C-1.85546875 7.51953125 -1.85546875 7.51953125 -1.1875 4.8125 C-0.97480469 3.91144531 -0.76210938 3.01039063 -0.54296875 2.08203125 C-0.36378906 1.39496094 -0.18460938 0.70789063 0 0 Z " fill="#2360A7" transform="translate(31,251)"/>
<path d="M0 0 C0.33 0.99 0.66 1.98 1 3 C0.34 3.66 -0.32 4.32 -1 5 C-1.67651207 7.19704511 -1.67651207 7.19704511 -2.125 9.625 C-2.37636719 10.85089844 -2.37636719 10.85089844 -2.6328125 12.1015625 C-2.75398438 12.72804688 -2.87515625 13.35453125 -3 14 C-3.33 14 -3.66 14 -4 14 C-3.91276622 12.22825181 -3.80458345 10.45752623 -3.6875 8.6875 C-3.62949219 7.70136719 -3.57148437 6.71523438 -3.51171875 5.69921875 C-2.95377187 2.75615543 -2.31459868 1.81817001 0 0 Z " fill="#2862A5" transform="translate(48,32)"/>
<path d="M0 0 C3 1 3 1 4.16796875 2.84765625 C4.50441406 3.57855469 4.84085938 4.30945313 5.1875 5.0625 C5.53167969 5.79597656 5.87585937 6.52945312 6.23046875 7.28515625 C6.48441406 7.85105469 6.73835938 8.41695313 7 9 C4.53199953 7.84826645 2.95216435 6.95216435 1 5 C0.375 2.375 0.375 2.375 0 0 Z " fill="#356FB0" transform="translate(29,263)"/>
<path d="M0 0 C0.33 0 0.66 0 1 0 C0.88490339 1.41750563 0.75746342 2.83401169 0.625 4.25 C0.55539063 5.03890625 0.48578125 5.8278125 0.4140625 6.640625 C-0.01507113 9.085877 -0.78600638 10.84836903 -2 13 C-2.05447047 11.58376784 -2.09300508 10.16691809 -2.125 8.75 C-2.14820313 7.96109375 -2.17140625 7.1721875 -2.1953125 6.359375 C-1.9828378 3.79268059 -1.28654105 2.2083933 0 0 Z " fill="#235EA3" transform="translate(40,61)"/>
<path d="M0 0 C1.90401138 1.90401138 2.93520439 3.33425686 3.19921875 6.046875 C3.1886578 8.03233273 3.09915043 10.0169914 3 12 C0.97649676 8.96474514 0.67875982 7.80573798 0.375 4.3125 C0.30023438 3.50425781 0.22546875 2.69601563 0.1484375 1.86328125 C0.09945312 1.24839844 0.05046875 0.63351563 0 0 Z " fill="#2562A8" transform="translate(176,58)"/>
<path d="M0 0 C2.96404505 2.80804268 5.44499019 5.18315774 7 9 C3.64564078 7.61198929 1.88709697 6.11371 0 3 C0 2.01 0 1.02 0 0 Z " fill="#2461A6" transform="translate(84,153)"/>
<path d="M0 0 C-1.33333333 0.66666667 -2.66666667 1.33333333 -4 2 C-4.66 2.391875 -5.32 2.78375 -6 3.1875 C-8.42863035 4.17413108 -9.57447091 3.86626039 -12 3 C-7.89542386 0.01485372 -5.02254631 -0.2954439 0 0 Z " fill="#2462A9" transform="translate(111,125)"/>
<path d="M0 0 C1.485 0.99 1.485 0.99 3 2 C2.67 5.3 2.34 8.6 2 12 C1.67 12 1.34 12 1 12 C0.67 8.04 0.34 4.08 0 0 Z " fill="#2F6BAE" transform="translate(185,89)"/>
<path d="M0 0 C2 1 2 1 2 1 Z " fill="#427DBD" transform="translate(141,318)"/>
<path d="M0 0 C2 1 2 1 2 1 Z " fill="#407DBC" transform="translate(137,318)"/>
<path d="M0 0 C2 1 2 1 2 1 Z " fill="#417BBB" transform="translate(133,318)"/>
<path d="M0 0 C2 1 2 1 2 1 Z " fill="#407BBA" transform="translate(130,318)"/>
<path d="" fill="#437EBA" transform="translate(0,0)"/>
<path d="" fill="#4C80B6" transform="translate(0,0)"/>
<path d="M0 0 C2 1 2 1 2 1 Z " fill="#3E7DC0" transform="translate(102,171)"/>
<path d="" fill="#477CB5" transform="translate(0,0)"/>
<path d="" fill="#497DB7" transform="translate(0,0)"/>
<path d="" fill="#437EBA" transform="translate(0,0)"/>
<path d="" fill="#447DBB" transform="translate(0,0)"/>
<path d="" fill="#457EBB" transform="translate(0,0)"/>
<path d="" fill="#417BBA" transform="translate(0,0)"/>
<path d="" fill="#417EBB" transform="translate(0,0)"/>
<path d="" fill="#417CBB" transform="translate(0,0)"/>
<path d="" fill="#447FBD" transform="translate(0,0)"/>
<path d="" fill="#427DBC" transform="translate(0,0)"/>
<path d="" fill="#457EBE" transform="translate(0,0)"/>
<path d="" fill="#4180BF" transform="translate(0,0)"/>
<path d="" fill="#3F7CBE" transform="translate(0,0)"/>
<path d="" fill="#417EBF" transform="translate(0,0)"/>
<path d="" fill="#3F7DC0" transform="translate(0,0)"/>
<path d="" fill="#407EBF" transform="translate(0,0)"/>
<path d="" fill="#427DC0" transform="translate(0,0)"/>
<path d="" fill="#4281BF" transform="translate(0,0)"/>
<path d="" fill="#447FC0" transform="translate(0,0)"/>
<path d="" fill="#487EB7" transform="translate(0,0)"/>
<path d="" fill="#3F7EC0" transform="translate(0,0)"/>
<path d="" fill="#4280C3" transform="translate(0,0)"/>
<path d="" fill="#4282C2" transform="translate(0,0)"/>
<path d="" fill="#437DBB" transform="translate(0,0)"/>
<path d="" fill="#4A80BB" transform="translate(0,0)"/>
<path d="" fill="#4D81B6" transform="translate(0,0)"/>
<path d="" fill="#507FB4" transform="translate(0,0)"/>
<path d="" fill="#4F7DB1" transform="translate(0,0)"/>
<path d="" fill="#4D7DB5" transform="translate(0,0)"/>
<path d="" fill="#4080C3" transform="translate(0,0)"/>
<path d="" fill="#4C81B3" transform="translate(0,0)"/>
<path d="" fill="#407CBD" transform="translate(0,0)"/>
<path d="" fill="#3F7EBF" transform="translate(0,0)"/>
<path d="" fill="#3F7DBE" transform="translate(0,0)"/>
<path d="" fill="#3E7DC1" transform="translate(0,0)"/>
<path d="" fill="#467BB7" transform="translate(0,0)"/>
<path d="" fill="#3E7CC2" transform="translate(0,0)"/>
<path d="" fill="#3D7DBE" transform="translate(0,0)"/>
<path d="" fill="#417EC0" transform="translate(0,0)"/>
<path d="" fill="#3E7ABE" transform="translate(0,0)"/>
<path d="" fill="#3E7EC2" transform="translate(0,0)"/>
<path d="" fill="#3E7DBF" transform="translate(0,0)"/>
<path d="" fill="#4180C0" transform="translate(0,0)"/>
<path d="" fill="#4181C1" transform="translate(0,0)"/>
<path d="" fill="#4182C0" transform="translate(0,0)"/>
<path d="" fill="#4180C0" transform="translate(0,0)"/>
<path d="" fill="#407FC3" transform="translate(0,0)"/>
<path d="" fill="#3C79BF" transform="translate(0,0)"/>
<path d="" fill="#4482C4" transform="translate(0,0)"/>
<path d="" fill="#417CBC" transform="translate(0,0)"/>
<path d="" fill="#4980B8" transform="translate(0,0)"/>
<path d="" fill="#4A7EB7" transform="translate(0,0)"/>
<path d="" fill="#487CB6" transform="translate(0,0)"/>
</svg>
